<svg xmlns="http://www.w3.org/2000/svg" xml:space="preserve" width="297.59406" height="164.62732" x="0px" y="0px" viewBox="0 0 330.55542 182.86136"><path fill="#FFF" d="M274.368 168.632s-.66 14.394-14.063 28.81c0 0 2.226 37.424-24.106 58.896-6.64 5.524-22.431 15.226-51.396 14.96H82.547l18.689-59.359c-15.93-13.574-31.988-21.291-35.504-22.816-6.389-2.977-15.098-5.096-18.109-5.043-6.688.145.518 17.9.518 17.9s-29.953-4.943-37.271-30.148c-3.134-10.793 1.159-16.952 12.606-21.668 8.049-3.326 21.262-4.896 21.262-4.896 1.018-2.119 3.044-5.595 3.984-6.822 2.18-2.226 4.479-3.83 9.277-5.615 43.25-16.057 90.441-20.84 101.58-21.119v-.018c26.598-1.496 36.256-1.953 81.188 1.42h.021c34.088 1.233 56.176-3.965 72.332-10.752 15.922-5.965 27.311-13.92 27.311-13.92-9.895 67.511-66.063 80.19-66.063 80.19z" style="fill:#231f20;fill-opacity:1" transform="translate(-9.876 -88.442)"/><path fill="#F15929" d="M212.854 222.943c12.485-.242 21.832-5.502 25.985-9.041 0 0-6.385 37.865-51.123 38.08H97.839l15.338-48.895s-18.012-21.045-51.267-29.174c-11.725-3.365-28.797-4.392-30.035 1.233-.475 1.716.468 7.304 1.589 11.773 0 0-5.278-2.443-8.502-6.388-1.046-1.043-6.125-7.296-6.535-14.155-.226-3.734 1.539-6.371 4.36-8.303 7.148-4.637 27.242-6.756 27.242-6.756l1.836-4.07c1.84-4.109 3.533-5.979 6.105-7.006 45.795-18.221 99.932-21.369 100.403-21.369l-.31.014c3.869-.246 8.922-.414 14.627-.51 24.479-1.593 57.761 1.563 60.177 1.799 24.039 1.522 38.879.877 49.258-.697 17.246-1.899 30.91-11.494 30.91-11.494s-13.539 30.523-45.844 39.076c-13.529 3.81-27.435 3.987-40.301 4.021h-24.422c-12.188 0-15.39 4.611-16.767 8.607l-3.214 10.668h40.814c15.105.522 25.473-5.684 30.127-9.637 0 0-6.289 37.431-50.965 38.079h-28.676l-7.61 24.141h46.67v.002h.004v.002z" style="fill:#fff;fill-opacity:1" transform="translate(-9.876 -88.442)"/><path fill="#231F20" d="M200.816 143.739c-13.528 0-19.241 5.303-21.668 12.305l-5.311 17.396h47.754c8.168-.088 16.455-.141 22.553-5.321-4.705 11.396-18.174 24.025-43.313 23.457l-32.519.011-10.664 34.46h49.854c8.166-.084 15.91-.473 22.391-4.984-4.484 11.319-18.977 23.975-43.606 23.367h-82.549l14.188-45.464s-29.883-31.162-72.981-33.35c-7.979-.121-13.207.592-16.401 2.293-3.795 2.006-1.533 8.485-1.533 8.485s-4.504-4.455-5.366-10.003c-.853-5.496 6.112-8.66 16.319-10.615 7.563-1.344 13.908-1.9 13.908-1.9l2.766-5.997c.785-1.599 1.654-2.892 2.718-3.83 1.723-1.571 4.629-2.559 4.629-2.559 43.494-15.396 94.746-19.535 94.746-19.535 3.764-.233 8.791-.404 14.448-.501 24.761-1.637 59.697 1.79 59.697 1.79 57.95 4.204 68.969-5.468 74.521-9.409.084-.088-.011.082.073 0-20.733 26.792-46.149 30.068-80.228 29.906z" style="fill:#f15929;fill-opacity:1" transform="translate(-9.876 -88.442)"/><path fill="#fff" d="m113.333 93.509 4.934-15.745c3.285-11.039 6.13-14.563 16.306-18.879 10.173-4.32 29.747-6.563 29.747-6.563-28.477-4.115-87.395-1.554-108.836 5.594-4.57 1.535-6.21 5.668-6.21 5.668l30.046-2.539-11.342 6.996c-11.147-3.864-19.602-2.09-19.602-2.09-7.174 3.156-8.324 9.281-8.324 9.281 37.526.217 73.281 18.277 73.281 18.277z"/></svg>